# xmcd
#
# Track frame offsets: 
#        150
#        10226
#        25222
#        40648
#        55707
#        73236
#        88845
#        110359
#        130987
#        149355
#        166964
#        185153
#        201903
#        217665
#        232607
#        250467
#        265698
#        280960
#
# Disc length: 3977 seconds
#
# Revision: 1
# Processed by: cddbd v1.5.2PL0 Copyright (c) Steve Scherf et al.
# Submitted via: ExactAudioCopyFreeDBPlugin 1.0
#
DISCID=000f8712
DTITLE=Justin Bieber - Purpose (Deluxe Edition)
DYEAR=2015
DGENRE=Pop
TTITLE0=Mark My Words
TTITLE1=I'll Show You
TTITLE2=What Do You Mean?
TTITLE3=Sorry
TTITLE4=Love Yourself
TTITLE5=Company
TTITLE6=Justin Bieber Feat. Big Sean - No Pressure
TTITLE7=Justin Bieber Feat. Travi$ Scott - No Sense
TTITLE8=Justin Bieber Feat. Halsey - The Feeling
TTITLE9=Life Is Worth Living
TTITLE10=Justin Bieber Feat. Diplo and Skrillex - Where Are Ü Now?
TTITLE11=Children
TTITLE12=Purpose
TTITLE13=Been You
TTITLE14=Get Used To It
TTITLE15=Justin Bieber Feat. Nas - We Are
TTITLE16=Trust
TTITLE17=All In It
EXTD=
EXTT0=
EXTT1=
EXTT2=
EXTT3=
EXTT4=
EXTT5=
EXTT6=
EXTT7=
EXTT8=
EXTT9=
EXTT10=
EXTT11=
EXTT12=
EXTT13=
EXTT14=
EXTT15=
EXTT16=
EXTT17=
PLAYORDER=
